<?xml version="1.0" encoding="utf-8"?>
<!-- Generator: Adobe Illustrator 16.0.0, SVG Export Plug-In . SVG Version: 6.00 Build 0)  -->
<!DOCTYPE svg PUBLIC "-//W3C//DTD SVG 1.1//EN" "http://www.w3.org/Graphics/SVG/1.1/DTD/svg11.dtd">
<svg version="1.1" id="Layer_1" xmlns="http://www.w3.org/2000/svg" xmlns:xlink="http://www.w3.org/1999/xlink" x="0px" y="0px"
	 width="64px" height="64px" viewBox="0 0 64 64" enable-background="new 0 0 64 64" xml:space="preserve">
<g>
	<g>
		<path fill="none" stroke="#9A191F" stroke-width="3" stroke-miterlimit="10" d="M14.75,62.113"/>
	</g>
	<g>
		<path fill="none" stroke="#9A191F" stroke-width="3" stroke-miterlimit="10" d="M49.251,62.113"/>
	</g>
</g>
<g>
	<g>
		
			<line fill="none" stroke="#9A191F" stroke-width="3" stroke-linecap="round" stroke-linejoin="round" stroke-miterlimit="10" x1="30.694" y1="36.793" x2="48.761" y2="36.793"/>
		
			<line fill="none" stroke="#9A191F" stroke-width="3" stroke-linecap="round" stroke-linejoin="round" stroke-miterlimit="10" x1="30.694" y1="40.357" x2="48.761" y2="40.357"/>
		
			<polyline fill="none" stroke="#9A191F" stroke-width="3" stroke-linecap="round" stroke-linejoin="round" stroke-miterlimit="10" points="
			17.289,39.268 19.529,41.829 24.147,35.976 		"/>
	</g>
	<g>
		
			<line fill="none" stroke="#9A191F" stroke-width="3" stroke-linecap="round" stroke-linejoin="round" stroke-miterlimit="10" x1="30.694" y1="49.184" x2="48.761" y2="49.184"/>
		
			<line fill="none" stroke="#9A191F" stroke-width="3" stroke-linecap="round" stroke-linejoin="round" stroke-miterlimit="10" x1="30.694" y1="52.748" x2="48.761" y2="52.748"/>
		
			<polyline fill="none" stroke="#9A191F" stroke-width="3" stroke-linecap="round" stroke-linejoin="round" stroke-miterlimit="10" points="
			17.289,51.658 19.529,54.22 24.147,48.366 		"/>
	</g>
	
		<polygon fill="none" stroke="#9A191F" stroke-width="3" stroke-linecap="round" stroke-linejoin="round" stroke-miterlimit="10" points="
		8.838,1.5 8.838,62.5 55.162,62.5 55.162,9.84 46.966,1.5 	"/>
	<path fill="none" stroke="#9A191F" stroke-width="3" stroke-linecap="round" stroke-linejoin="round" stroke-miterlimit="10" d="
		M26.621,11.006v5.134h4.896C31.517,16.14,31.74,11.006,26.621,11.006z"/>
	
		<line fill="none" stroke="#9A191F" stroke-width="3" stroke-linecap="round" stroke-linejoin="round" stroke-miterlimit="10" x1="38.592" y1="10.972" x2="38.592" y2="25.239"/>
	
		<line fill="none" stroke="#9A191F" stroke-width="3" stroke-linecap="round" stroke-linejoin="round" stroke-miterlimit="10" x1="41.947" y1="14.1" x2="41.947" y2="25.239"/>
	
		<line fill="none" stroke="#9A191F" stroke-width="3" stroke-linecap="round" stroke-linejoin="round" stroke-miterlimit="10" x1="45.334" y1="17.287" x2="45.334" y2="25.239"/>
	
		<line fill="none" stroke="#9A191F" stroke-width="3" stroke-linecap="round" stroke-linejoin="round" stroke-miterlimit="10" x1="48.749" y1="19.759" x2="48.749" y2="25.239"/>
	<path fill="none" stroke="#9A191F" stroke-width="3" stroke-linecap="round" stroke-linejoin="round" stroke-miterlimit="10" d="
		M22.981,10.559c-4.01,0.422-7.136,3.823-7.136,7.959c0,4.419,3.572,8.002,7.978,8.002c4.133,0,7.529-3.148,7.938-7.187h-8.769
		l-0.079-8.739"/>
</g>
</svg>
