<?xml version="1.0" encoding="utf-8"?>
<!-- Generator: Adobe Illustrator 16.0.0, SVG Export Plug-In . SVG Version: 6.00 Build 0)  -->
<!DOCTYPE svg PUBLIC "-//W3C//DTD SVG 1.1//EN" "http://www.w3.org/Graphics/SVG/1.1/DTD/svg11.dtd">
<svg version="1.1" id="Layer_1" xmlns="http://www.w3.org/2000/svg" xmlns:xlink="http://www.w3.org/1999/xlink" x="0px" y="0px"
	 width="64px" height="64px" viewBox="0 0 64 64" enable-background="new 0 0 64 64" xml:space="preserve">
<g>
	<g>
		<path fill="none" stroke="#9A191F" stroke-width="3" stroke-miterlimit="10" d="M14.75,62.113"/>
	</g>
	<g>
		<path fill="none" stroke="#9A191F" stroke-width="3" stroke-miterlimit="10" d="M49.251,62.113"/>
	</g>
</g>
<g>
	<path fill="none" stroke="#9A191F" stroke-width="3" stroke-linecap="round" stroke-linejoin="round" stroke-miterlimit="10" d="
		M62.5,58.142c0,2.404-1.96,4.358-4.378,4.358H14.93c-2.416,0-4.376-1.954-4.376-4.358v-42.17c0-2.409,1.96-4.363,4.376-4.363
		h43.192c2.418,0,4.378,1.954,4.378,4.363V58.142z"/>
	<path fill="none" stroke="#9A191F" stroke-width="3" stroke-linecap="round" stroke-linejoin="round" stroke-miterlimit="10" d="
		M6.545,20.697H2.899c0,0-2.186,0.091-1.093,4c1.322,4.715,8.385,32.719,8.385,32.719"/>
	
		<polyline fill="none" stroke="#9A191F" stroke-width="3" stroke-linecap="round" stroke-linejoin="round" stroke-miterlimit="10" points="
		19.031,28.33 22.675,32.965 30.239,26.604 36.162,34.6 44.091,19.609 49.925,32.06 54.025,25.97 	"/>
	<g>
		
			<line fill="none" stroke="#9A191F" stroke-width="3" stroke-linecap="round" stroke-linejoin="round" stroke-miterlimit="10" x1="17.616" y1="44.142" x2="33.474" y2="44.142"/>
		
			<line fill="none" stroke="#9A191F" stroke-width="3" stroke-linecap="round" stroke-linejoin="round" stroke-miterlimit="10" x1="17.616" y1="52.415" x2="33.474" y2="52.415"/>
		
			<line fill="none" stroke="#9A191F" stroke-width="3" stroke-linecap="round" stroke-linejoin="round" stroke-miterlimit="10" x1="39.579" y1="44.142" x2="55.433" y2="44.142"/>
		
			<line fill="none" stroke="#9A191F" stroke-width="3" stroke-linecap="round" stroke-linejoin="round" stroke-miterlimit="10" x1="39.579" y1="52.415" x2="55.433" y2="52.415"/>
	</g>
</g>
</svg>
