<?xml version="1.0" encoding="utf-8"?>
<!-- Generator: Adobe Illustrator 16.0.0, SVG Export Plug-In . SVG Version: 6.00 Build 0)  -->
<!DOCTYPE svg PUBLIC "-//W3C//DTD SVG 1.1//EN" "http://www.w3.org/Graphics/SVG/1.1/DTD/svg11.dtd">
<svg version="1.1" id="Layer_1" xmlns="http://www.w3.org/2000/svg" xmlns:xlink="http://www.w3.org/1999/xlink" x="0px" y="0px"
	 width="64px" height="64px" viewBox="0 0 64 64" enable-background="new 0 0 64 64" xml:space="preserve">
<g>
	<g>
		<path fill="none" stroke="#9A191F" stroke-width="3" stroke-miterlimit="10" d="M14.75,62.113"/>
	</g>
	<g>
		<path fill="none" stroke="#9A191F" stroke-width="3" stroke-miterlimit="10" d="M49.251,62.113"/>
	</g>
</g>
<g>
	<g>
		
			<ellipse fill="none" stroke="#9A191F" stroke-width="3" stroke-linecap="round" stroke-linejoin="round" stroke-miterlimit="10" cx="28.218" cy="19.267" rx="9.159" ry="9.138"/>
		<g>
			<path fill="none" stroke="#9A191F" stroke-width="3" stroke-linecap="round" stroke-linejoin="round" stroke-miterlimit="10" d="
				M42.206,44.454c0,0,2.673-14.954-12.255-14.954l-1.893,4.062"/>
			<path fill="none" stroke="#9A191F" stroke-width="3" stroke-linecap="round" stroke-linejoin="round" stroke-miterlimit="10" d="
				M27.816,33.562L25.924,29.5c-14.926,0-12.253,14.954-12.253,14.954h28.355"/>
		</g>
	</g>
	<path fill="none" stroke="#9A191F" stroke-width="3" stroke-linecap="round" stroke-linejoin="round" stroke-miterlimit="10" d="
		M54.375,27.952c0,14.571-11.829,26.385-26.438,26.385C13.338,54.337,1.5,42.522,1.5,27.952C1.5,13.384,13.338,1.57,27.938,1.57
		C42.546,1.57,54.375,13.384,54.375,27.952z"/>
	
		<line fill="none" stroke="#9A191F" stroke-width="3" stroke-linecap="round" stroke-linejoin="round" stroke-miterlimit="10" x1="62.5" y1="62.43" x2="46.614" y2="46.738"/>
</g>
</svg>
