<svg width="92px" height="48px" viewBox="0 0 92 48" version="1.1" xmlns="http://www.w3.org/2000/svg" xmlns:xlink="http://www.w3.org/1999/xlink">
    <g id="Symbols" stroke="none" stroke-width="1" fill="none" fill-rule="evenodd">
        <g id="Elements/Logos/BPI-Red">
            <g id="BPI-Logo-Red">
                <path d="M39,39.4785714 L39,15 L48.2,15 C51.8964286,15 54.6071429,15.4928571 56.4142857,16.5607143 C58.1392857,17.6285714 59.0428571,19.1892857 59.0428571,21.325 C59.0428571,22.7214286 58.6321429,23.9535714 57.7285714,24.8571429 C56.825,25.7607143 55.5928571,26.4178571 53.7857143,26.8285714 C55.7571429,27.1571429 57.3178571,27.8964286 58.2214286,28.8821429 C59.2071429,29.8678571 59.7,31.1821429 59.7,32.825 C59.7,35.0428571 58.8785714,36.7678571 57.3178571,37.8357143 C55.7571429,38.9857143 53.375,39.4785714 50.1714286,39.4785714 L39,39.4785714 Z M45.5714286,24.9392857 L48.2,24.9392857 C49.6785714,24.9392857 50.7464286,24.6928571 51.4035714,24.2821429 C52.0607143,23.8714286 52.3892857,23.1321429 52.3892857,22.1464286 C52.3892857,21.2428571 52.0607143,20.5857143 51.3214286,20.0928571 C50.5821429,19.6 49.5964286,19.4357143 48.2,19.4357143 L45.5714286,19.4357143 L45.5714286,24.9392857 L45.5714286,24.9392857 Z M45.5714286,35.0428571 L48.2,35.0428571 C49.8428571,35.0428571 51.075,34.7964286 51.7321429,34.3035714 C52.4714286,33.8107143 52.8,33.0714286 52.8,32.0035714 C52.8,31.0178571 52.3892857,30.2785714 51.65,29.7857143 C50.9107143,29.2928571 49.7607143,29.0464286 48.1178571,29.0464286 L45.4892857,29.0464286 L45.4892857,35.0428571 L45.5714286,35.0428571 Z" id="Shape" fill="#B11116" fill-rule="nonzero"></path>
                <path d="M62,39.4785714 L62,15 L73.1714286,15 C76.375,15 78.7571429,15.6571429 80.4,16.9714286 C82.0428571,18.2857143 82.8642857,20.2571429 82.8642857,22.8035714 C82.8642857,25.35 82.0428571,27.2392857 80.4,28.6357143 C78.7571429,30.0321429 76.5392857,30.7714286 73.5821429,30.7714286 L68.6535714,30.7714286 L68.6535714,39.4785714 L62,39.4785714 L62,39.4785714 Z M68.8178571,26.0071429 L71.8571429,26.0071429 C73.3357143,26.0071429 74.4035714,25.7607143 75.0607143,25.1857143 C75.7178571,24.6928571 76.1285714,23.8714286 76.1285714,22.7214286 C76.1285714,21.6535714 75.8,20.8321429 75.1428571,20.3392857 C74.4857143,19.8464286 73.4178571,19.6 71.9392857,19.6 L68.9,19.6 L68.9,26.0071429 L68.8178571,26.0071429 Z" id="Shape" fill="#B11116" fill-rule="nonzero"></path>
                <polygon id="Rectangle-path" fill="#B11116" fill-rule="nonzero" points="85 15 91.7357143 15 91.7357143 39.4785714 85 39.4785714"></polygon>
                <path d="M0.328571429,36.3071429 C0.575,37.0464286 1.15,37.7035714 2.05357143,38.3607143 C3.28571429,39.3464286 12.8142857,45.6714286 15.7714286,47.5607143 L16.4285714,47.9714286 L16.9214286,47.6428571 C17.4142857,47.3142857 28.9964286,39.4285714 30.3928571,38.3607143 C31.2964286,37.7035714 31.7892857,37.0464286 32.1178571,36.3071429 C32.5285714,35.1571429 32.3642857,34.2535714 32.2821429,33.5964286 L32.2821429,33.5964286 C32.2,33.2678571 30.3107143,21.85 29.325,16.4285714 C25.0535714,15.7714286 20.7821429,15.4428571 16.4285714,15.4428571 C16.3464286,15.4428571 16.2642857,15.4428571 16.1821429,15.4428571 L16.1821429,45.0142857 C10.35,41.2357143 4.76428571,37.5392857 3.77857143,36.8 C3.20357143,36.3892857 2.875,35.9785714 2.71071429,35.5678571 C2.46428571,34.9928571 2.54642857,34.5 2.62857143,33.925 C2.71071429,33.5964286 4.76428571,21.3571429 5.75,16.1821429 C4.84642857,16.2642857 4.18928571,16.4285714 3.28571429,16.5928571 C2.3,22.0142857 0.246428571,33.2678571 0.164285714,33.5964286 C4.55984457e-17,34.2535714 -0.164285714,35.1571429 0.328571429,36.3071429 L0.328571429,36.3071429 Z M7.88571429,20.7821429 L8.95357143,20.7821429 L8.95357143,21.3571429 L8.95357143,21.6857143 L9.85714286,21.6857143 L9.85714286,20.7821429 L10.925,20.7821429 L10.925,21.6857143 L11.7464286,21.6857143 L11.7464286,20.7821429 L12.8142857,20.7821429 L12.8142857,23.0821429 L7.88571429,23.0821429 L7.88571429,20.7821429 L7.88571429,20.7821429 Z M8.625,23.4107143 L11.9107143,23.4107143 L13.0607143,32.5285714 L7.55714286,32.5285714 L8.625,23.4107143 Z M6.9,33.0214286 L13.7178571,33.0214286 L13.7178571,35.3214286 L11.9107143,35.3214286 L11.9107143,34.7464286 L8.78928571,34.7464286 L8.78928571,35.3214286 L6.9,35.3214286 L6.9,33.0214286 Z M9.52857143,28.4214286 L11.0892857,28.4214286 L11.0892857,27.8464286 L9.52857143,27.8464286 L9.52857143,28.4214286 Z M11.0892857,26.0392857 L9.52857143,26.0392857 L9.52857143,26.6142857 L11.0892857,26.6142857 L11.0892857,26.0392857 Z M9.52857143,30.2285714 L11.0892857,30.2285714 L11.0892857,29.6535714 L9.52857143,29.6535714 L9.52857143,30.2285714 Z M8.54285714,11.7464286 C7.88571429,11.8285714 7.475,11.9107143 6.9,12.075 C6.81785714,12.5678571 6.65357143,13.5535714 6.48928571,14.375 C9.69285714,13.8821429 13.0607143,13.6357143 16.3464286,13.6357143 C19.4678571,13.6357143 22.5892857,13.8821429 25.6285714,14.2928571 C25.4642857,13.5535714 25.3,12.5678571 25.2178571,12.075 C24.8071429,11.9107143 24.3142857,11.8285714 23.575,11.7464286 C25.7107143,11.2535714 27.025,9.775 27.025,8.29642857 C27.025,6.40714286 25.5464286,4.84642857 21.7678571,4.51785714 C20.4535714,3.45 18.6464286,3.03928571 17.0035714,2.875 C17.4142857,2.62857143 17.6607143,2.13571429 17.6607143,1.56071429 C17.6607143,0.739285714 16.8392857,0 16.0178571,0 C15.1964286,0 14.375,0.657142857 14.375,1.56071429 C14.375,2.05357143 14.6214286,2.54642857 15.0321429,2.875 C13.4714286,3.03928571 11.5821429,3.45 10.2678571,4.51785714 C6.57142857,4.84642857 5.09285714,6.40714286 5.09285714,8.29642857 C5.09285714,9.775 6.40714286,11.2535714 8.54285714,11.7464286 L8.54285714,11.7464286 Z M22.5892857,5.66785714 C22.5892857,5.66785714 25.3821429,5.91428571 25.3821429,8.37857143 C25.3821429,10.35 23.2464286,11.4178571 20.6178571,11.0071429 C24.2321429,9.61071429 23.4928571,6.73571429 22.5892857,5.66785714 L22.5892857,5.66785714 Z M16.9214286,4.27142857 C19.3035714,4.51785714 21.1107143,5.99642857 21.1107143,7.80357143 C21.1107143,9.61071429 19.2214286,11.1714286 16.8392857,11.3357143 C17.3321429,10.6785714 17.6607143,9.36428571 17.6607143,7.72142857 C17.5785714,6.24285714 17.3321429,4.92857143 16.9214286,4.27142857 L16.9214286,4.27142857 Z M15.1964286,4.27142857 C14.7857143,5.01071429 14.4571429,6.24285714 14.4571429,7.72142857 C14.4571429,9.28214286 14.7857143,10.6785714 15.2785714,11.3357143 C12.8964286,11.1714286 11.0071429,9.69285714 11.0071429,7.80357143 C11.0071429,5.91428571 12.8142857,4.43571429 15.1964286,4.27142857 L15.1964286,4.27142857 Z M9.52857143,5.66785714 C8.625,6.73571429 7.88571429,9.52857143 11.5821429,11.0071429 C8.95357143,11.3357143 6.81785714,10.2678571 6.81785714,8.37857143 C6.65357143,5.99642857 9.52857143,5.66785714 9.52857143,5.66785714 L9.52857143,5.66785714 Z M23.4928571,37.2107143 C23.4928571,37.1285714 23.575,36.9642857 23.575,36.8821429 C23.7392857,36.8821429 23.9035714,36.8 24.15,36.8 C24.4785714,36.5535714 24.4785714,35.8964286 24.8071429,35.65 C24.9714286,35.5678571 25.0535714,35.65 25.1357143,35.8142857 C25.2178571,35.5678571 25.2178571,35.2392857 25.3,34.9107143 C25.5464286,34.2535714 26.2035714,33.8428571 25.9571429,32.6107143 C25.9571429,32.6107143 25.9571429,32.6107143 25.875,32.5285714 C25.7928571,32.6928571 25.7107143,32.775 25.6285714,32.9392857 C24.725,32.8571429 25.0535714,30.8857143 25.7107143,30.7214286 C26.1214286,31.9535714 28.0107143,32.2821429 28.175,30.6392857 C28.175,30.3107143 27.9285714,29.9 27.6,29.4071429 C27.7642857,28.9142857 27.9285714,28.5035714 28.0928571,28.2571429 C28.175,28.0928571 27.6,28.3392857 27.2714286,28.9142857 C27.4357143,28.4214286 27.6,27.9285714 27.8464286,27.6821429 C27.9285714,27.5178571 27.4357143,27.7642857 27.1071429,28.2571429 C27.2714286,27.7642857 27.4357143,27.2714286 27.6821429,27.025 C27.7642857,26.8607143 27.1071429,27.1892857 26.8607143,27.7642857 C26.7785714,27.4357143 26.6964286,27.1071429 26.6964286,26.8607143 C26.6964286,26.1214286 26.9428571,24.6428571 27.2714286,23.4107143 C27.3535714,23.0821429 27.5178571,22.425 28.0107143,22.1785714 C27.6,22.0964286 26.9428571,22.425 26.9428571,23.1642857 C26.8607143,22.0964286 26.0392857,21.6857143 25.6285714,21.6035714 C26.9428571,22.8357143 25.875,25.5464286 25.875,26.7785714 C25.875,28.4214286 27.8464286,30.0642857 27.5178571,30.6392857 C27.1071429,31.4607143 26.2857143,29.9 26.0392857,29.325 C25.7928571,28.8321429 24.8892857,28.0107143 24.2321429,27.3535714 C24.6428571,27.1071429 25.0535714,26.3678571 25.0535714,25.7107143 C25.1357143,25.7928571 25.2178571,25.875 25.2178571,25.9571429 L25.3,25.9571429 C25.2178571,25.3 25.4642857,24.5607143 25.2178571,23.9857143 C25.3,23.9857143 25.4642857,23.9857143 25.5464286,23.9857143 C25.4642857,21.0285714 23.3285714,21.6035714 22.2607143,21.85 C22.2607143,21.9321429 22.1785714,21.9321429 22.1785714,22.0142857 C22.3428571,22.0142857 22.425,22.0142857 22.5892857,22.0142857 L22.5892857,22.0142857 C22.5071429,22.0142857 22.3428571,22.0964286 22.2607143,22.0964286 C22.1785714,22.2607143 22.2607143,22.7535714 22.5071429,23 C22.5892857,22.7535714 22.5892857,22.6714286 22.8357143,22.5892857 C23.0821429,22.7535714 23.2464286,23.1642857 23.0821429,23.575 C22.9178571,23.6571429 22.7535714,23.575 22.6714286,23.4107143 C22.6714286,23.4107143 22.6714286,23.4107143 22.6714286,23.4107143 C22.5892857,23.8214286 22.5892857,24.3142857 22.9178571,24.5607143 C22.9178571,24.15 23.0821429,23.9857143 23.4107143,24.0678571 C23.3285714,24.9714286 22.6714286,24.725 22.0964286,24.9714286 C20.9464286,25.3821429 20.7,27.1071429 19.6321429,27.3535714 C19.7142857,27.7642857 20.125,28.0928571 20.3714286,28.2571429 C20.2071429,28.5035714 19.6321429,29.4071429 19.3035714,29.4071429 C19.2214286,29.2428571 19.1392857,29.0785714 18.8928571,29.0785714 C18.7285714,29.1607143 18.5642857,29.1607143 18.4,29.2428571 C18.4,29.325 18.3178571,29.4071429 18.3178571,29.4071429 C18.4,29.4071429 18.4821429,29.4071429 18.5642857,29.4892857 C18.5642857,29.5714286 18.5642857,29.7357143 18.5642857,29.8178571 C18.7285714,29.8178571 18.8928571,29.8178571 19.0571429,29.9 C19.0571429,29.9 19.0571429,29.9821429 19.0571429,29.9821429 C18.8928571,29.9821429 18.7285714,29.9 18.5642857,29.9 C18.4821429,29.9821429 18.2357143,30.3928571 18.2357143,30.6392857 L18.2357143,30.7214286 C18.3178571,30.6392857 18.3178571,30.6392857 18.4,30.5571429 C18.4821429,30.5571429 18.4821429,30.6392857 18.5642857,30.7214286 C18.5642857,30.7214286 18.6464286,30.7214286 18.6464286,30.8035714 C18.8107143,30.6392857 18.8928571,30.5571429 19.0571429,30.3928571 L19.0571429,30.3928571 C19.0571429,30.3928571 19.0571429,30.475 19.1392857,30.475 C19.0571429,30.6392857 18.8928571,30.7214286 18.8107143,30.8857143 C18.8107143,31.1321429 18.7285714,31.3785714 18.8107143,31.625 C18.8928571,31.5428571 18.975,31.4607143 19.0571429,31.3785714 C19.3857143,31.7071429 19.55,31.2964286 19.7964286,30.9678571 C19.8785714,31.05 20.0428571,31.05 20.2071429,31.1321429 C20.2071429,31.2142857 20.2071429,31.2964286 20.2071429,31.3785714 L20.2071429,31.3785714 C20.7,30.8857143 20.0428571,30.3928571 20.7,29.8178571 C21.0285714,29.9821429 21.1928571,29.9821429 21.5214286,29.8178571 C21.6035714,29.7357143 21.6035714,29.6535714 21.6857143,29.5714286 C21.5214286,29.4892857 21.4392857,29.4071429 21.3571429,29.2428571 C21.3571429,29.1607143 21.3571429,29.0785714 21.4392857,29.0785714 C21.6035714,28.8321429 22.0142857,28.8321429 22.2607143,28.9142857 C22.9178571,29.1607143 23.3285714,29.8178571 23.8214286,30.3107143 C23.7392857,30.9678571 23.7392857,31.7071429 23.8214286,32.2821429 C23.9857143,32.8571429 24.3964286,33.1035714 24.2321429,33.8428571 C24.4785714,33.8428571 24.6428571,33.6785714 24.725,33.5142857 C24.8071429,33.5142857 24.8892857,33.5142857 25.0535714,33.5142857 C24.8071429,34.0071429 24.3142857,34.9107143 23.8214286,35.075 C23.3285714,35.2392857 23.1642857,34.6642857 22.7535714,34.7464286 C22.6714286,34.8285714 22.5892857,34.9107143 22.5892857,34.9107143 C22.425,34.9928571 22.3428571,34.9107143 22.1785714,35.1571429 L22.1785714,35.2392857 C22.2607143,35.2392857 22.3428571,35.2392857 22.425,35.2392857 C22.425,35.3214286 22.5071429,35.4035714 22.5071429,35.5678571 C22.5892857,35.4035714 22.7535714,35.3214286 22.8357143,35.1571429 C22.8357143,35.1571429 22.8357143,35.1571429 22.8357143,35.2392857 C22.6714286,35.4035714 22.5071429,35.65 22.425,35.8964286 C22.425,36.0607143 22.425,36.225 22.425,36.3892857 C22.425,36.3892857 22.425,36.3892857 22.5071429,36.3892857 L22.6714286,36.1428571 C22.6714286,36.1428571 22.7535714,36.1428571 22.7535714,36.1428571 C22.7535714,36.225 22.8357143,36.225 22.8357143,36.3071429 C22.8357143,36.3071429 22.9178571,36.3071429 22.9178571,36.3071429 C23,36.0607143 23,35.8964286 23.0821429,35.65 C23.0821429,35.65 23.1642857,35.65 23.1642857,35.5678571 C23.1642857,35.5678571 23.1642857,35.5678571 23.1642857,35.5678571 C23.0821429,35.8964286 23,36.3071429 23.0821429,36.7178571 C23.0821429,36.7178571 23.1642857,36.8 23.1642857,36.8 C23.1642857,36.7178571 23.2464286,36.6357143 23.2464286,36.6357143 C23,36.8 23,36.7178571 23.1642857,36.8 C23.1642857,36.4714286 23.0821429,36.225 23.3285714,36.0607143 C23.1642857,36.3071429 23.2464286,36.8 23.3285714,37.1285714 C23.3285714,37.1285714 23.4107143,37.2107143 23.4928571,37.2107143 L23.4928571,37.2107143 Z M23.0821429,22.5071429 L23.0821429,22.1785714 C23.3285714,22.1785714 23.6571429,22.1785714 23.8214286,22.2607143 C23.575,22.2607143 23.3285714,22.3428571 23.0821429,22.5071429 L23.0821429,22.5071429 Z M23.575,33.5142857 L23.575,33.5142857 C23.3285714,33.2678571 22.425,32.2 22.6714286,31.5428571 C22.7535714,31.2142857 23.0821429,31.2964286 23.3285714,31.4607143 C23.3285714,31.2964286 23.3285714,31.05 23.4107143,30.8857143 C23.2464286,30.6392857 22.8357143,30.475 23,30.0642857 C21.85,29.1607143 21.9321429,30.7214286 21.0285714,30.6392857 C21.0285714,30.9678571 21.275,31.2142857 21.5214286,31.2964286 C21.5214286,32.0357143 21.7678571,32.5285714 22.0964286,32.775 C22.0964286,32.775 22.0964286,32.8571429 22.0964286,32.8571429 C21.6857143,32.9392857 21.1107143,32.9392857 20.8642857,32.6928571 C20.4535714,32.3642857 20.3714286,31.9535714 19.7964286,31.9535714 L19.7964286,31.9535714 C19.7964286,32.0357143 19.8785714,32.0357143 19.8785714,32.1178571 C19.8785714,32.2 19.8785714,32.2821429 19.7964286,32.3642857 L19.7964286,32.3642857 C19.8785714,32.3642857 20.0428571,32.4464286 20.125,32.4464286 C20.125,32.4464286 20.125,32.4464286 20.2071429,32.4464286 L20.2071429,32.6928571 C19.8785714,32.6107143 19.4678571,32.6107143 19.3857143,33.0214286 L19.3857143,33.0214286 C19.4678571,33.0214286 19.55,33.0214286 19.6321429,33.0214286 C19.7142857,33.1035714 19.7142857,33.1857143 19.7964286,33.4321429 C19.9607143,33.2678571 20.0428571,33.1035714 20.2071429,33.0214286 L20.2071429,33.0214286 C20.125,33.4321429 19.7964286,33.5142857 19.7964286,34.0071429 L19.7964286,34.0071429 C19.8785714,34.0071429 19.9607143,33.925 20.0428571,33.8428571 C20.125,33.925 20.2071429,34.0071429 20.2892857,34.0892857 C20.3714286,34.0071429 20.4535714,33.7607143 20.4535714,33.5964286 C20.4535714,33.5964286 20.5357143,33.5964286 20.5357143,33.5964286 C20.4535714,33.925 20.2892857,34.2535714 20.4535714,34.5821429 C20.4535714,34.6642857 20.5357143,34.6642857 20.5357143,34.7464286 C20.5357143,34.6642857 20.6178571,34.5821429 20.6178571,34.5 C20.7821429,34.4178571 20.8642857,34.5821429 21.0285714,34.5 C21.275,34.4178571 21.275,34.0071429 21.6857143,34.0071429 C21.7678571,34.0892857 21.85,34.1714286 21.85,34.4178571 C22.0964286,34.3357143 22.1785714,34.0892857 22.3428571,34.0071429 C22.9178571,33.7607143 23.0821429,34.0892857 23.575,33.5142857 L23.575,33.5142857 Z M21.7678571,23.9857143 C22.2607143,23.9035714 22.425,23.4107143 22.9178571,23.4107143 L22.9178571,23.4107143 C22.8357143,23.4107143 22.6714286,23.3285714 22.5892857,23.4107143 C22.3428571,23.4928571 21.275,24.0678571 21.6857143,23.1642857 C21.275,23.1642857 21.1107143,24.0678571 21.7678571,23.9857143 L21.7678571,23.9857143 Z M18.4,26.3678571 L18.4,26.3678571 C18.4821429,26.5321429 18.8107143,26.5321429 18.975,26.5321429 C19.0571429,26.45 19.1392857,26.2857143 19.2214286,26.2035714 C19.2214286,26.2035714 19.2214286,26.2035714 19.3035714,26.2035714 C19.55,26.5321429 19.7964286,26.8607143 20.0428571,27.1071429 C20.0428571,27.1071429 20.0428571,27.1071429 20.125,27.1071429 C20.3714286,26.8607143 20.5357143,26.5321429 20.7,26.2857143 C20.6178571,25.7928571 20.125,25.6285714 19.9607143,25.2178571 C19.7964286,24.725 20.2892857,24.0678571 19.6321429,23.6571429 C19.6321429,23.9035714 19.55,23.9857143 19.4678571,24.15 C19.4678571,24.3142857 19.4678571,24.4785714 19.55,24.5607143 L19.55,24.6428571 L19.55,24.6428571 C19.4678571,24.5607143 19.4678571,24.3964286 19.3857143,24.2321429 C19.3035714,24.0678571 18.975,23.8214286 18.7285714,23.8214286 L18.7285714,23.8214286 C18.8107143,23.9857143 18.7285714,24.15 18.8107143,24.3142857 C18.8928571,24.4785714 18.975,24.6428571 19.0571429,24.8071429 L19.0571429,24.8892857 L18.975,24.8892857 C18.8928571,24.8071429 18.8107143,24.6428571 18.6464286,24.5607143 C18.4821429,24.4785714 18.2357143,24.5607143 18.0714286,24.6428571 C18.1535714,24.725 18.2357143,24.8071429 18.2357143,24.8892857 C18.4,24.9714286 19.0571429,25.7928571 18.4,26.3678571 L18.4,26.3678571 Z M22.6714286,20.2071429 C22.9178571,20.0428571 23.1642857,19.9607143 23.4107143,19.9607143 C23.3285714,19.8785714 23.3285714,19.8785714 23.3285714,19.7964286 C23.3285714,19.6321429 23.4928571,19.55 23.575,19.55 C23.7392857,19.55 23.8214286,19.6321429 23.8214286,19.7964286 C23.8214286,19.8785714 23.8214286,19.9607143 23.7392857,19.9607143 C23.9857143,19.9607143 24.2321429,20.0428571 24.4785714,20.2071429 C25.0535714,20.2892857 25.3,20.5357143 25.3,20.7821429 C25.3,21.0285714 25.0535714,21.275 24.6428571,21.3571429 C24.6428571,21.4392857 24.6428571,21.5214286 24.6428571,21.6035714 C24.3964286,21.5214286 23.9857143,21.5214286 23.575,21.5214286 C23.2464286,21.5214286 22.7535714,21.6035714 22.5071429,21.6035714 C22.5071429,21.5214286 22.5071429,21.4392857 22.5071429,21.3571429 C22.0964286,21.275 21.85,21.0285714 21.85,20.7821429 C21.85,20.5357143 22.0964286,20.2892857 22.6714286,20.2071429 L22.6714286,20.2071429 Z M24.9714286,20.8642857 C24.9714286,20.5357143 24.5607143,20.4535714 24.5607143,20.4535714 C24.725,20.6178571 24.8071429,20.9464286 24.2321429,21.1928571 C24.725,21.275 24.9714286,21.1107143 24.9714286,20.8642857 L24.9714286,20.8642857 Z M24.3142857,20.7821429 C24.3142857,20.5357143 23.9857143,20.2892857 23.6571429,20.2892857 C23.7392857,20.3714286 23.7392857,20.5357143 23.7392857,20.7821429 C23.7392857,21.0285714 23.6571429,21.1928571 23.575,21.275 C24.0678571,21.1928571 24.3142857,21.0285714 24.3142857,20.7821429 L24.3142857,20.7821429 Z M23.4107143,21.275 C23.3285714,21.1928571 23.2464286,21.0285714 23.2464286,20.7821429 C23.2464286,20.6178571 23.3285714,20.3714286 23.3285714,20.2892857 C22.9178571,20.2892857 22.6714286,20.5357143 22.6714286,20.7821429 C22.7535714,21.0285714 23.0821429,21.1928571 23.4107143,21.275 L23.4107143,21.275 Z M22.8357143,21.1928571 C22.2607143,20.9464286 22.425,20.6178571 22.5071429,20.4535714 C22.5071429,20.4535714 22.0964286,20.4535714 22.0964286,20.8642857 C22.0964286,21.1107143 22.425,21.275 22.8357143,21.1928571 L22.8357143,21.1928571 Z" id="Shape" fill="#DCB91C"></path>
            </g>
        </g>
    </g>
</svg>